<?xml version="1.0" encoding="UTF-8" standalone="no"?>
<svg
   xmlns:dc="http://purl.org/dc/elements/1.1/"
   xmlns:cc="http://creativecommons.org/ns#"
   xmlns:rdf="http://www.w3.org/1999/02/22-rdf-syntax-ns#"
   xmlns:svg="http://www.w3.org/2000/svg"
   xmlns="http://www.w3.org/2000/svg"
   xmlns:sodipodi="http://sodipodi.sourceforge.net/DTD/sodipodi-0.dtd"
   xmlns:inkscape="http://www.inkscape.org/namespaces/inkscape"
   viewBox="0 0 51.759998 35.400002"
   height="35.400002"
   width="51.759998"
   xml:space="preserve"
   id="svg29"
   version="1.1"
   sodipodi:docname="people_red.svg"
   inkscape:version="0.92.5 (2060ec1f9f, 2020-04-08)"><sodipodi:namedview
     pagecolor="#ffffff"
     bordercolor="#666666"
     borderopacity="1"
     objecttolerance="10"
     gridtolerance="10"
     guidetolerance="10"
     inkscape:pageopacity="0"
     inkscape:pageshadow="2"
     inkscape:window-width="1920"
     inkscape:window-height="1016"
     id="namedview19"
     showgrid="false"
     inkscape:zoom="12.217514"
     inkscape:cx="-15.252794"
     inkscape:cy="9.926377"
     inkscape:window-x="1920"
     inkscape:window-y="27"
     inkscape:window-maximized="1"
     inkscape:current-layer="g39" /><metadata
     id="metadata35"><rdf:RDF><cc:Work
         rdf:about=""><dc:format>image/svg+xml</dc:format><dc:type
           rdf:resource="http://purl.org/dc/dcmitype/StillImage" /><dc:title /></cc:Work></rdf:RDF></metadata><defs
     id="defs33" /><g
     transform="matrix(-1.4244739,0,0,-1.4508712,54.30636,36.620834)"
     id="g37"><g
       transform="scale(0.1)"
       id="g39"><path
         id="path41"
         style="fill:#5a1920;fill-opacity:1;fill-rule:nonzero;stroke:none"
         d="m 363.16,194.492 c -2.394,3.93 -5.226,7.891 -9.402,9.836 -4.922,2.293 -10.703,1.344 -16.02,2.453 -6.273,1.313 -14.961,12.071 -20.875,16 -8.703,5.785 -19.59,9.91 -29.238,13.821 -15.195,6.152 -30.969,10.437 -47.055,12.925 -3.445,0.735 -6.39,1.2 -8.761,1.383 l -0.766,0.059 -1.348,0.097 h -0.48 c -5.602,0.52 -11.227,0.903 -16.895,0.903 -3.82,0 -8.265,-0.242 -13.027,-0.641 -4.762,0.399 -9.207,0.641 -13.027,0.641 -5.668,0 -11.293,-0.383 -16.895,-0.903 h -2.207 c -3.355,0 -8.676,-0.914 -15.062,-2.472 -14.036,-2.614 -27.809,-6.594 -41.141,-11.992 -9.648,-3.911 -20.5352,-8.036 -29.2383,-13.821 -5.9141,-3.929 -14.6016,-14.687 -20.875,-16 -5.3164,-1.109 -11.0977,-0.16 -16.0196,-2.453 -4.1718,-1.945 -7.0078,-5.906 -9.4023,-9.836 C 22.8008,173.789 12.3594,140.004 20.4375,115.813 25.9453,99.3164 43.7031,89.0938 56.9063,78.6016 94.2813,48.8906 139.047,37.9648 186.266,38.9922 c 4.347,0.0937 8.687,0.2695 13.027,0.4844 4.34,-0.2149 8.684,-0.3907 13.027,-0.4844 47.219,-1.0274 91.985,9.8984 129.364,39.6094 13.199,10.4922 30.957,20.7148 36.464,37.2114 8.079,24.191 -2.363,57.976 -14.988,78.679"
         inkscape:connector-curvature="0" /><path
         id="path43"
         style="fill:#f6daa7;fill-opacity:1;fill-rule:nonzero;stroke:none"
         d="m 110.473,77.3594 h 167.48 l -7.754,69.3746 c 0,0 -64.07,75.403 -75.992,75.403 -11.91,0 -75.867,-75.196 -75.867,-75.196 l -7.867,-69.5816"
         inkscape:connector-curvature="0" /><path
         id="path45"
         style="fill:#f6daa7;fill-opacity:1;fill-rule:nonzero;stroke:none"
         d="m 275.52,52.1758 c -11.727,-19.668 -39.032,-37.1992 -72.879,-37.1992 -32.11,0 -64.227,15.9257 -75.25,27.9257 -28.2387,30.754 -17.25,91.7967 -0.672,125.1757 22.277,44.852 92.308,48.11 129.902,15.164 26.824,-23.512 43.672,-89.5232 18.899,-131.0662"
         inkscape:connector-curvature="0" /><path
         id="path47"
         style="fill:#eeba7b;fill-opacity:1;fill-rule:nonzero;stroke:none"
         d="m 177.004,8.38672 c 6.738,-1.19531 6.976,5.30078 15.012,5.30078 7.847,0 22.355,-6.16797 29.254,-4.36719 45.375,11.86329 80.273,61.48829 69.882,116.54669 -13.14,69.613 -7.593,21.363 -21.468,22.668 -1.688,20.117 -32.164,36.16 -69.61,36.16 -37.164,0 -67.457,-15.8 -69.566,-35.699 -12.172,4.867 -14.945,41.391 -23.379,-21.777 C 99.4922,70 119.91,18.5117 177.004,8.38672"
         inkscape:connector-curvature="0" /></g></g></svg>