<?xml version="1.0" encoding="UTF-8" standalone="no"?>
<svg
   xmlns:dc="http://purl.org/dc/elements/1.1/"
   xmlns:cc="http://creativecommons.org/ns#"
   xmlns:rdf="http://www.w3.org/1999/02/22-rdf-syntax-ns#"
   xmlns:svg="http://www.w3.org/2000/svg"
   xmlns="http://www.w3.org/2000/svg"
   xmlns:sodipodi="http://sodipodi.sourceforge.net/DTD/sodipodi-0.dtd"
   xmlns:inkscape="http://www.inkscape.org/namespaces/inkscape"
   viewBox="0 0 55.901912 39.363694"
   height="39.363693"
   width="55.901913"
   xml:space="preserve"
   id="svg29"
   version="1.1"
   sodipodi:docname="people_selected.svg"
   inkscape:version="0.92.5 (2060ec1f9f, 2020-04-08)"><sodipodi:namedview
     pagecolor="#ffffff"
     bordercolor="#666666"
     borderopacity="1"
     objecttolerance="10"
     gridtolerance="10"
     guidetolerance="10"
     inkscape:pageopacity="0"
     inkscape:pageshadow="2"
     inkscape:window-width="1920"
     inkscape:window-height="1016"
     id="namedview19"
     showgrid="false"
     inkscape:zoom="8.639087"
     inkscape:cx="34.15161"
     inkscape:cy="12.076843"
     inkscape:window-x="1920"
     inkscape:window-y="27"
     inkscape:window-maximized="1"
     inkscape:current-layer="g39"
     fit-margin-top="0"
     fit-margin-left="0"
     fit-margin-right="0"
     fit-margin-bottom="0" /><metadata
     id="metadata35"><rdf:RDF><cc:Work
         rdf:about=""><dc:format>image/svg+xml</dc:format><dc:type
           rdf:resource="http://purl.org/dc/dcmitype/StillImage" /><dc:title></dc:title></cc:Work></rdf:RDF></metadata><defs
     id="defs33" /><g
     transform="matrix(-1.4244739,0,0,-1.4508712,56.271415,38.608906)"
     id="g37"><g
       transform="scale(0.1)"
       id="g39"><path
         style="fill:#000000;fill-opacity:1;fill-rule:nonzero;stroke:none;stroke-width:1"
         d="m 216.78585,265.69256 c 45.16067,-2.24477 92.20514,-16.35913 126.19791,-45.68915 40.56982,-1.74875 48.95079,-53.6462 52.04772,-84.9705 C 395.36304,84.596396 340.07263,58.754019 300.42418,39.346872 268.46104,31.553479 249.9071,-8.7950719 212.42569,-4.3364749 193.60349,5.3764067 176.86473,-13.064452 157.7317,-0.86334779 126.18011,8.142524 113.02445,40.616709 80.592475,47.100834 40.970626,68.426345 -9.8062039,101.9705 5.3316865,153.85243 c 5.7262965,29.02025 19.0680995,67.62586 54.4334715,68.21063 41.166402,37.0988 103.175432,46.24376 157.020692,43.6295 z"
         id="path41"
         inkscape:connector-curvature="0" /></g></g></svg>